<?xml version="1.0" standalone="no"?>
<!DOCTYPE svg PUBLIC "-//W3C//DTD SVG 20010904//EN"
 "http://www.w3.org/TR/2001/REC-SVG-20010904/DTD/svg10.dtd">
<svg version="1.0" xmlns="http://www.w3.org/2000/svg"
 width="225.000000pt" height="225.000000pt" viewBox="0 0 225.000000 225.000000"
 preserveAspectRatio="xMidYMid meet">
<metadata>
Created by potrace 1.14, written by Peter Selinger 2001-2017
</metadata>
<g transform="translate(0.000000,225.000000) scale(0.100000,-0.100000)"
fill="#000000" stroke="none">
<path d="M0 1125 l0 -1125 1125 0 1125 0 0 1125 0 1125 -1125 0 -1125 0 0
-1125z m674 539 c9 -3 16 -16 16 -29 0 -12 9 -47 19 -78 85 -247 369 -366 604
-255 122 58 208 162 242 293 8 33 19 63 25 69 10 10 198 -5 218 -18 24 -14
-31 -199 -86 -291 -51 -85 -147 -183 -186 -190 -17 -4 -78 4 -136 16 -152 32
-371 32 -532 0 -140 -29 -153 -26 -231 58 -93 102 -159 239 -174 362 l-6 47
64 10 c78 12 142 14 163 6z m231 -608 c108 -21 335 -21 445 0 47 9 111 18 143
21 l57 5 69 -70 c52 -53 80 -93 115 -163 41 -83 85 -233 72 -246 -11 -12 -88
-23 -157 -23 l-76 0 -12 55 c-30 134 -122 248 -248 308 -64 30 -74 32 -183 32
-109 0 -119 -2 -183 -32 -127 -60 -234 -196 -253 -319 l-7 -47 -101 6 c-135 6
-139 8 -130 66 19 131 83 256 185 364 l67 70 58 -6 c33 -3 95 -12 139 -21z"/>
</g>
</svg>
